<svg xmlns="http://www.w3.org/2000/svg" xmlns:xlink="http://www.w3.org/1999/xlink" xmlns:lucid="lucid" width="1956.85" height="1087.89"><g transform="translate(-499.94182821529137 -879.7468318687754)" lucid:page-tab-id="0_0"><path d="M1440.3 899.75c18.13 0 32.84 13.2 32.84 29.5s-14.7 29.5-32.84 29.5h-98.52c-18.14 0-32.84-13.2-32.84-29.5s14.7-29.5 32.84-29.5z" stroke="#31bddf" stroke-width="5" fill="#fff"/><use xlink:href="#a" transform="matrix(1,0,0,1,1320.9378274433604,911.7468318687754) translate(39.69753086419753 22.27777777777778)"/><path d="M1392.23 963.26l-1.1 99.72" stroke="#5e5e5e" stroke-width="4" fill="none"/><path d="M1394.23 963.33l-4-.04.02-2.04h4z" stroke="#5e5e5e" stroke-width=".05" fill="#5e5e5e"/><path d="M1390.94 1079.25l-4.48-14.32 9.27.1z" stroke="#5e5e5e" stroke-width="4" fill="#5e5e5e"/><path d="M1315.84 1093.18a6 6 0 0 1 6-6h138.05a6 6 0 0 1 6 6v52.6a6 6 0 0 1-6 6h-138.06a6 6 0 0 1-6-6z" stroke="#1071e5" stroke-width="3" fill="#fff"/><use xlink:href="#b" transform="matrix(1,0,0,1,1327.8433998520554,1099.1823377235573) translate(25.194444444444443 23.6875)"/><path d="M1128.46 1066.53a10.62 10.62 0 0 1 10.44 0l97.93 55.34a3.4 3.4 0 0 1 0 5.9l-97.93 55.33a10.62 10.62 0 0 1-10.44 0l-97.93-55.33a3.4 3.4 0 0 1 0-5.9z" stroke="#31bddf" stroke-width="3" fill="#fff"/><use xlink:href="#c" transform="matrix(1,0,0,1,1037.3063134585616,1075.5826867453998) translate(58.44327160493827 54.90277777777778)"/><path d="M737.45 1104.24a6 6 0 0 1 6-6h126.4a6 6 0 0 1 6 6v41.55a6 6 0 0 1-6 6h-126.4a6 6 0 0 1-6-6z" stroke="#b8decd" stroke-width="3" fill="#fff"/><use xlink:href="#d" transform="matrix(1,0,0,1,749.4501020507278,1110.2367601834371) translate(5.861111111111107 19.75)"/><path d="M1312.38 1121.1l-50.12 1.05" stroke="#5e5e5e" stroke-width="4" fill="none"/><path d="M1314.38 1123.07l-2 .04-.1-4 2.1-.03z" stroke="#5e5e5e" stroke-width=".05" fill="#5e5e5e"/><path d="M1246 1122.5l14.16-4.94.2 9.27z" stroke="#5e5e5e" stroke-width="4" fill="#5e5e5e"/><path d="M949.6 1126.93l-49.54.03v-4l49.55-.03zm75.7-.05l-49.07.03v-4l49.07-.02z" stroke="#e81313" stroke-width=".05" fill="#e81313"/><path d="M1027.4 1123.8l-.1 1.02.1 1.03.33.98-2.47.05v-4h2.45z" fill="#e81313"/><path d="M1027.43 1123.8l-.1 1.02.1 1.02.33 1-2.53.07v-4.04h2.5zm-2.15-.9v3.96l2.42-.06-.32-.95-.1-1.03.1-1.03.3-.9z" stroke="#e81313" stroke-width=".05" fill="#e81313"/><path d="M898.06 1129.6l-14.26-4.63 14.26-4.65z" fill="#e81313"/><path d="M900.07 1132.34l-22.75-7.37 22.74-7.4zm-9.8-7.38l5.8 1.88v-3.76z" stroke="#e81313" stroke-width=".05" fill="#e81313"/><use xlink:href="#e" transform="matrix(1,0,0,1,949.6116223576306,1114.252923332359) translate(0 14.222222222222223)"/><path d="M850 1415a10.62 10.62 0 0 1 10.46 0l70.6 39.9a3.4 3.4 0 0 1 0 5.9l-70.6 39.9a10.62 10.62 0 0 1-10.45 0l-70.6-39.9a3.4 3.4 0 0 1 0-5.9z" stroke="#31bddf" stroke-width="3" fill="#fff"/><use xlink:href="#f" transform="matrix(1,0,0,1,786.1776891332869,1424.0400316598111) translate(25.171666666666667 37.25)"/><path d="M1390.86 1155.25l-1.12 306.28" stroke="#5e5e5e" stroke-width="4" fill="none"/><path d="M1392.86 1155.3h-4v-2.05h4z" stroke="#5e5e5e" stroke-width=".05" fill="#5e5e5e"/><path d="M1389.68 1477.8l-4.6-14.3 9.28.05z" stroke="#5e5e5e" stroke-width="4" fill="#5e5e5e"/><path d="M831.64 1742.08a6 6 0 0 1 6-6h138.4a6 6 0 0 1 6 6v41.55a6 6 0 0 1-6 6h-138.4a6 6 0 0 1-6-6z" stroke="#eae15f" stroke-width="3" fill="#fff"/><use xlink:href="#g" transform="matrix(1,0,0,1,843.635513308233,1748.083531191603) translate(30.22222222222222 19.75)"/><path d="M850 1515.1a10.62 10.62 0 0 1 10.46 0l70.6 39.88a3.4 3.4 0 0 1 0 5.9l-70.6 39.9a10.62 10.62 0 0 1-10.45 0l-70.6-39.9a3.4 3.4 0 0 1 0-5.9z" stroke="#31bddf" stroke-width="3" fill="#fff"/><use xlink:href="#h" transform="matrix(1,0,0,1,786.1776891332869,1524.1367802674936) translate(25.171666666666667 37.25)"/><path d="M774.17 1457.9l-1.52.03-3.22.25-2.97.38-2.8.5-2.64.63-2.52.72-2.45.85-2.4.97-2.37 1.1-2.4 1.28-2.45 1.47-2.6 1.73-2.82 2.12-3.3 2.75-4.62 4.28-15.8 15.47-3.3 2.75-2.83 2.12-2.6 1.74-2.45 1.47-2.4 1.27-2.37 1.1-.34.15" stroke="#008a0e" stroke-width="4" stroke-linejoin="round" fill="none"/><path d="M776.6 1455.83l-.32.98-.1 1.04.1 1.03.32.96-2.43.06-.1-4 2.53-.07z" stroke="#008a0e" stroke-width=".05" fill="#008a0e"/><path d="M685.17 1506.1l13.13-7.26 1.75 9.1z" stroke="#008a0e" stroke-width="4" fill="#008a0e"/><path d="M774.17 1557.9l-1.44-.05-3.16-.24-2.92-.37-2.74-.5-2.6-.6-2.48-.73-2.4-.84-2.37-.96-2.35-1.1-2.35-1.24-2.42-1.45-2.53-1.7-2.75-2.04-3.15-2.62-4.14-3.83-17.88-17.8-3.15-2.6-2.74-2.07-2.54-1.7-2.42-1.44-2.36-1.27-2.3-1.07" stroke="#008a0e" stroke-width="4" stroke-linejoin="round" fill="none"/><path d="M776.6 1555.95l-.32.96-.1 1.04.1 1.02.32.98-2.53-.06.1-4z" stroke="#008a0e" stroke-width=".05" fill="#008a0e"/><path d="M685.17 1508.56l14.9-1.8-1.8 9.1z" stroke="#008a0e" stroke-width="4" fill="#008a0e"/><path d="M526.95 1486.53a6 6 0 0 1 6-6h138.4a6 6 0 0 1 6 6v41.56a6 6 0 0 1-6 6h-138.4a6 6 0 0 1-6-6z" stroke="#eae15f" stroke-width="3" fill="#fff"/><use xlink:href="#i" transform="matrix(1,0,0,1,538.9519674500975,1492.5344315100642) translate(30.22222222222222 19.75)"/><path d="M1064.48 1244.93a6 6 0 0 1 6-6h126.4a6 6 0 0 1 6 6v41.55a6 6 0 0 1-6 6h-126.4a6 6 0 0 1-6-6z" stroke="#b8decd" stroke-width="3" fill="#fff"/><use xlink:href="#j" transform="matrix(1,0,0,1,1076.476020102159,1250.9301053262234) translate(4.30555555555555 19.75)"/><path d="M1133.07 1187.54v27.2M1133.07 1187.6v-2.06" stroke="#008a0e" stroke-width="4" fill="none"/><path d="M1133.07 1231l-4.64-14.27h9.27z" stroke="#008a0e" stroke-width="4" fill="#008a0e"/><path d="M1314.63 1491.73a6 6 0 0 1 6-6h138.05a6 6 0 0 1 6 6v52.6a6 6 0 0 1-6 6h-138.05a6 6 0 0 1-6-6z" stroke="#1071e5" stroke-width="3" fill="#fff"/><use xlink:href="#k" transform="matrix(1,0,0,1,1326.6291536464355,1497.7296103862457) translate(44.166666666666664 23.6875)"/><path d="M1311.16 1513.8h-80.7" stroke="#5e5e5e" stroke-width="4" fill="none"/><path d="M1313.16 1515.8h-2.05v-4h2.06z" stroke="#5e5e5e" stroke-width=".05" fill="#5e5e5e"/><path d="M1214.2 1513.8l14.26-4.65v9.28z" stroke="#5e5e5e" stroke-width="4" fill="#5e5e5e"/><path d="M1389.68 1553.8v152.56" stroke="#5e5e5e" stroke-width="4" fill="none"/><path d="M1391.68 1553.85h-4v-2.05h4z" stroke="#5e5e5e" stroke-width=".05" fill="#5e5e5e"/><path d="M1389.68 1722.62l-4.64-14.26h9.27z" stroke="#5e5e5e" stroke-width="4" fill="#5e5e5e"/><path d="M1314.8 1736.56a6 6 0 0 1 6-6h138.05a6 6 0 0 1 6 6v52.6a6 6 0 0 1-6 6H1320.8a6 6 0 0 1-6-6z" stroke="#1071e5" stroke-width="3" fill="#fff"/><use xlink:href="#l" transform="matrix(1,0,0,1,1326.7992561071587,1742.5563199616631) translate(16.3611111111111 23.6875)"/><path d="M1056.2 1486.53a6 6 0 0 1 6-6h138.06a6 6 0 0 1 6 6v52.6a6 6 0 0 1-6 6H1062.2a6 6 0 0 1-6-6z" stroke="#1071e5" stroke-width="3" fill="#fff"/><use xlink:href="#m" transform="matrix(1,0,0,1,1068.2085152944956,1492.5344315100642) translate(17.499999999999993 23.6875)"/><path d="M1052.74 1512.8l-1.96-.04-3.65-.23-3.4-.36-3.18-.47-3-.57-2.87-.67-2.75-.77-2.67-.88-2.6-.97-2.6-1.08-2.56-1.2-2.6-1.38-2.68-1.55-2.82-1.8-3.06-2.12-3.53-2.68-4.63-3.86-19.94-17.57-3.53-2.68-3.06-2.13-2.82-1.8-2.68-1.54-2.6-1.36-2.58-1.2-2.57-1.1-2.62-.97-2.67-.86-.35-.1" stroke="#5e5e5e" stroke-width="4" stroke-linejoin="round" fill="none"/><path d="M1054.74 1510.84v4l-2.1-.05.1-4z" stroke="#5e5e5e" stroke-width=".05" fill="#5e5e5e"/><path d="M940.7 1458.7l14.77-2.67-1.25 9.2z" stroke="#5e5e5e" stroke-width="4" fill="#5e5e5e"/><path d="M1052.74 1512.88l-2.8.06-4.32.27-3.97.42-3.68.55-3.44.65-3.26.77-3.12.86-3 .98-2.98 1.1-2.94 1.24-3 1.4-3.12 1.64-3.38 1.96-3.94 2.5-5.68 3.97-16.84 12.24-3.94 2.5-3.4 1.95-3.1 1.64-3 1.4-2.96 1.24-2.96 1.1-3 .98-3.13.87-.93.2" stroke="#5e5e5e" stroke-width="4" stroke-linejoin="round" fill="none"/><path d="M1054.75 1514.84l-2.02.04-.08-4 2.1-.04z" stroke="#5e5e5e" stroke-width=".05" fill="#5e5e5e"/><path d="M940.73 1557.2l13.66-6.18 1.02 9.2z" stroke="#5e5e5e" stroke-width="4" fill="#5e5e5e"/><path d="M706.68 1762.26h-24.62v-4h24.62zm100.75 0h-18.98v-4h18.98z" stroke="#008a0e" stroke-width=".05" fill="#008a0e"/><path d="M682.1 1762.26h-2.47l.32-.98.1-1.02-.1-1.03-.32-.97h2.48z" fill="#008a0e"/><path d="M682.13 1762.28h-2.53l.33-1 .1-1.02-.1-1.03-.33-1h2.53zm-2.46-4l.3.94.1 1.04-.1 1.03-.3.93h2.4v-3.95z" stroke="#008a0e" stroke-width=".05" fill="#008a0e"/><path d="M823.7 1760.26l-14.27 4.63v-9.28z" fill="#008a0e"/><path d="M830.17 1760.26l-22.74 7.38v-14.77zm-18.74 1.88l5.8-1.88-5.8-1.9z" stroke="#008a0e" stroke-width=".05" fill="#008a0e"/><use xlink:href="#n" transform="matrix(1,0,0,1,706.6766950200059,1749.5897251941403) translate(0 14.222222222222223)"/><path d="M526.95 1900.08a6 6 0 0 1 6-6h138.4a6 6 0 0 1 6 6v41.55a6 6 0 0 1-6 6h-138.4a6 6 0 0 1-6-6z" stroke="#eae15f" stroke-width="3" fill="#fff"/><use xlink:href="#g" transform="matrix(1,0,0,1,538.9519674500975,1906.0814539877438) translate(30.22222222222222 19.75)"/><path d="M600.67 1869.88h-4v-10.03h4zm0-31.36h-4v-30.77h4z" stroke="#008a0e" stroke-width=".05" fill="#008a0e"/><path d="M597.32 1805.4l1.2.32 1.23.2.92.04v1.84h-4v-2.64z" fill="#008a0e"/><path d="M597.32 1805.38l1.2.32 1.23.2.94.04v1.88h-4.06v-2.7zm-.63 2.4h3.94v-1.8l-.9-.04-1.22-.2-1.2-.3-.63-.24z" stroke="#008a0e" stroke-width=".05" fill="#008a0e"/><path d="M598.67 1886.15l-4.64-14.27h9.27z" fill="#008a0e"/><path d="M598.67 1892.62l-7.4-22.74h14.8zm-1.88-18.74l1.87 5.8 1.88-5.8z" stroke="#008a0e" stroke-width=".05" fill="#008a0e"/><use xlink:href="#o" transform="matrix(1,0,0,1,575.0146205838632,1838.516760906718) translate(0 14.222222222222223)"/><path d="M526.15 1602.12a6 6 0 0 1 6-6H670.2a6 6 0 0 1 6 6v52.6a6 6 0 0 1-6 6H532.15a6 6 0 0 1-6-6z" stroke="#1071e5" stroke-width="3" fill="#fff"/><use xlink:href="#p" transform="matrix(1,0,0,1,538.1494637855504,1608.1241292869727) translate(29.407407407407398 15.006944444444446)"/><use xlink:href="#q" transform="matrix(1,0,0,1,538.1494637855504,1608.1241292869727) translate(43.44444444444444 31.89583333333334)"/><use xlink:href="#r" transform="matrix(1,0,0,1,538.1494637855504,1608.1241292869727) translate(61.22222222222222 31.89583333333334)"/><use xlink:href="#s" transform="matrix(1,0,0,1,538.1494637855504,1608.1241292869727) translate(76.14814814814815 31.89583333333334)"/><path d="M601.13 1664.2l-.04 27.6" stroke="#5e5e5e" stroke-width="4" fill="none"/><path d="M603.12 1664.25h-4v-2.06h4z" stroke="#5e5e5e" stroke-width=".05" fill="#5e5e5e"/><path d="M601.07 1708.06l-4.62-14.27h9.27z" stroke="#5e5e5e" stroke-width="4" fill="#5e5e5e"/><path d="M602.77 1538.18v33.74M602.77 1538.23v-2.05" stroke="#5e5e5e" stroke-width="4" fill="none"/><path d="M602.77 1588.2l-4.63-14.28h9.27z" stroke="#5e5e5e" stroke-width="4" fill="#5e5e5e"/><path d="M595.77 1717.4a10.62 10.62 0 0 1 10.45 0l70.6 39.9a3.4 3.4 0 0 1 0 5.9l-70.6 39.9a10.62 10.62 0 0 1-10.45 0l-70.6-39.9a3.4 3.4 0 0 1 0-5.9z" stroke="#31bddf" stroke-width="3" fill="#fff"/><use xlink:href="#t" transform="matrix(1,0,0,1,531.9418282152914,1726.4575102937679) translate(35.97722222222222 37.25)"/><use xlink:href="#u" transform="matrix(1,0,0,1,531.9418282152914,1726.4575102937679) translate(73.69944444444445 37.25)"/><use xlink:href="#v" transform="matrix(1,0,0,1,531.9418282152914,1726.4575102937679) translate(90.92166666666667 37.25)"/><path d="M1560.45 1440.9h-8.1m-16.2 0h-16.18m-16.2 0h-16.2m-16.18 0h-16.2m-16.2 0h-16.2m-16.2 0h-16.18m-16.2 0h-16.2m-16.18 0h-16.2m-16.2 0h-16.18m-16.2 0h-16.2m-16.2 0h-16.18m-16.2 0h-16.2m-16.18 0h-16.2m-16.2 0h-16.18m-16.2 0h-16.2m-16.18 0h-16.2m-16.2 0h-8.1" stroke="#fa7811" stroke-width="4" fill="none"/><path d="M1562.46 1442.9h-2.06v-4h2.05z" stroke="#fa7811" stroke-width=".05" fill="#fa7811"/><path d="M1025.98 1440.9l14.27-4.64v9.27z" stroke="#fa7811" stroke-width="4" fill="#fa7811"/><path d="M2127.18 899.75c18.14 0 32.84 13.2 32.84 29.5s-14.7 29.5-32.84 29.5h-98.52c-18.13 0-32.84-13.2-32.84-29.5s14.7-29.5 32.84-29.5z" stroke="#31bddf" stroke-width="5" fill="#fff"/><use xlink:href="#w" transform="matrix(1,0,0,1,2007.822967925399,911.7468318687754) translate(44.635802469135804 22.27777777777778)"/><path d="M2079.13 963.26l-.13 87.52" stroke="#5e5e5e" stroke-width="4" fill="none"/><path d="M2081.13 963.3h-4v-2.04h4z" stroke="#5e5e5e" stroke-width=".05" fill="#5e5e5e"/><path d="M2078.98 1067.04l-4.62-14.27h9.27z" stroke="#5e5e5e" stroke-width="4" fill="#5e5e5e"/><path d="M2002.73 1221.1a6 6 0 0 1 6-6h138.05a6 6 0 0 1 6 6v52.62a6 6 0 0 1-6 6h-138.05a6 6 0 0 1-6-6z" stroke="#1071e5" stroke-width="3" fill="#fff"/><use xlink:href="#x" transform="matrix(1,0,0,1,2014.7285403340939,1227.1123872662401) translate(10.222222222222221 23.6875)"/><path d="M2077.75 1283.18v93.78" stroke="#5e5e5e" stroke-width="4" fill="none"/><path d="M2079.75 1283.23h-4v-2.05h4z" stroke="#5e5e5e" stroke-width=".05" fill="#5e5e5e"/><path d="M2077.75 1393.23l-4.63-14.27h9.27z" stroke="#5e5e5e" stroke-width="4" fill="#5e5e5e"/><path d="M2073.74 1076.4a10.62 10.62 0 0 1 10.45 0l70.6 39.9a3.4 3.4 0 0 1 0 5.9l-70.6 39.88a10.62 10.62 0 0 1-10.46 0l-70.6-39.9a3.4 3.4 0 0 1 0-5.9z" stroke="#31bddf" stroke-width="3" fill="#fff"/><use xlink:href="#y" transform="matrix(1,0,0,1,2009.9112554151927,1085.43834357584) translate(49.58833333333333 37.25)"/><path d="M2298.38 1098.46a6 6 0 0 1 6-6h126.4a6 6 0 0 1 6 6V1140a6 6 0 0 1-6 6h-126.4a6 6 0 0 1-6-6z" stroke="#b8decd" stroke-width="3" fill="#fff"/><use xlink:href="#d" transform="matrix(1,0,0,1,2310.382893797987,1104.4617254002633) translate(5.861111111111107 19.75)"/><path d="M1741.08 1098.46a6 6 0 0 1 6-6h126.4a6 6 0 0 1 6 6V1140a6 6 0 0 1-6 6h-126.4a6 6 0 0 1-6-6z" stroke="#b8decd" stroke-width="3" fill="#fff"/><use xlink:href="#d" transform="matrix(1,0,0,1,1753.08239146717,1104.4617254002633) translate(5.861111111111107 19.75)"/><path d="M1934.54 1121.24h-30.85v-4h30.84zm63.36 0h-27.8v-4h27.8z" stroke="#e81313" stroke-width=".05" fill="#e81313"/><path d="M2000 1118.2l-.1 1.04.1 1.02.33.98h-2.48v-4h2.48z" fill="#e81313"/><path d="M2000.04 1118.22l-.1 1.02.1 1.02.33 1h-2.54v-4.05h2.54zm-2.16-.96v3.95h2.42l-.3-.93-.12-1.03.1-1.04.32-.94z" stroke="#e81313" stroke-width=".05" fill="#e81313"/><path d="M1901.7 1123.87l-14.27-4.63 14.26-4.64z" fill="#e81313"/><path d="M1903.7 1126.63l-22.74-7.4 22.73-7.38zm-9.8-7.4l5.8 1.9v-3.78z" stroke="#e81313" stroke-width=".05" fill="#e81313"/><use xlink:href="#z" transform="matrix(1,0,0,1,1934.5439433248976,1108.570558368361) translate(0 14.222222222222223)"/><use xlink:href="#A" transform="matrix(1,0,0,1,1934.5439433248976,1108.570558368361) translate(25.679012345679016 14.222222222222223)"/><path d="M2209.7 1121.24h-49.67v-4h49.67zm64.48 0h-28.93v-4h28.93z" stroke="#e81313" stroke-width=".05" fill="#e81313"/><path d="M2160.08 1121.24h-2.48l.32-.98.1-1.02-.1-1.03-.32-.96h2.48z" fill="#e81313"/><path d="M2160.1 1121.26h-2.53l.32-1 .1-1.02-.1-1.02-.33-1h2.53zm-2.47-4l.3.94.12 1.04-.1 1.03-.32.94h2.42v-3.94z" stroke="#e81313" stroke-width=".05" fill="#e81313"/><path d="M2290.45 1119.24l-14.27 4.63v-9.27z" fill="#e81313"/><path d="M2296.92 1119.24l-22.74 7.4v-14.8zm-18.74 1.88l5.8-1.88-5.8-1.9z" stroke="#e81313" stroke-width=".05" fill="#e81313"/><use xlink:href="#B" transform="matrix(1,0,0,1,2209.6957584583706,1108.570558353433) translate(0 14.222222222222223)"/><use xlink:href="#C" transform="matrix(1,0,0,1,2209.6957584583706,1108.570558353433) translate(25.679012345679016 14.222222222222223)"/><path d="M2078.58 1166.03l-.6 24.9M2078.58 1166.08l.05-2.05" stroke="#008a0e" stroke-width="4" fill="none"/><path d="M2077.57 1207.18l-4.28-14.38 9.26.23z" stroke="#008a0e" stroke-width="4" fill="#008a0e"/><path d="M2070.27 1402.35a10.62 10.62 0 0 1 10.45 0l70.6 39.9a3.4 3.4 0 0 1 0 5.9l-70.6 39.9a10.62 10.62 0 0 1-10.45 0l-70.6-39.9a3.4 3.4 0 0 1 0-5.9z" stroke="#31bddf" stroke-width="3" fill="#fff"/><use xlink:href="#D" transform="matrix(1,0,0,1,2006.4386192590562,1411.4015954846427) translate(49.58833333333333 37.25)"/><path d="M1563.93 1424.42a6 6 0 0 1 6-6h138.4a6 6 0 0 1 6 6v41.56a6 6 0 0 1-6 6h-138.4a6 6 0 0 1-6-6z" stroke="#eae15f" stroke-width="3" fill="#fff"/><use xlink:href="#E" transform="matrix(1,0,0,1,1575.9258511112116,1430.424977309066) translate(1.4722222222222214 19.75)"/><path d="M1563.93 1556.18a6 6 0 0 1 6-6h138.4a6 6 0 0 1 6 6v41.55a6 6 0 0 1-6 6h-138.4a6 6 0 0 1-6-6z" stroke="#eae15f" stroke-width="3" fill="#fff"/><use xlink:href="#F" transform="matrix(1,0,0,1,1575.9258511112116,1562.1835439163397) translate(1.4722222222222214 19.75)"/><path d="M1560.46 1578.14h-8.1m-16.2 0h-16.2m-16.2 0h-16.22m-16.2 0h-16.2m-16.2 0h-16.2m-16.22 0h-16.2m-16.2 0h-16.2m-16.22 0h-16.2m-16.2 0h-16.2m-16.2 0h-16.22m-16.2 0h-16.2m-16.2 0h-16.22m-16.2 0h-16.2m-16.2 0h-16.2m-16.22 0h-16.2m-16.2 0h-16.2m-16.22 0h-8.1" stroke="#fa7811" stroke-width="4" fill="none"/><path d="M1562.47 1580.14h-2.06v-4h2.06z" stroke="#fa7811" stroke-width=".05" fill="#fa7811"/><path d="M1025.65 1578.14l14.27-4.63v9.28z" stroke="#fa7811" stroke-width="4" fill="#fa7811"/><path d="M1924.26 1447.2h-.2v-4h.2zm70.17 0h-8.54v-4h8.53z" stroke="#008a0e" stroke-width=".05" fill="#008a0e"/><path d="M1996.54 1444.17l-.1 1.03.1 1.03.32.97h-2.48v-4h2.48z" fill="#008a0e"/><path d="M1996.57 1444.18l-.1 1.02.1 1.02.32 1h-2.54v-4.04h2.53zm-2.16-.95v3.95h2.43l-.3-.95-.12-1.03.12-1.03.3-.94z" stroke="#008a0e" stroke-width=".05" fill="#008a0e"/><path d="M1922.05 1449.84l-14.27-4.64 14.27-4.63z" fill="#008a0e"/><path d="M1924.05 1452.6l-22.74-7.4 22.75-7.4zm-9.8-7.4l5.8 1.88v-3.76z" stroke="#008a0e" stroke-width=".05" fill="#008a0e"/><use xlink:href="#G" transform="matrix(1,0,0,1,1924.2560164706513,1434.5338103850152) translate(0 14.222222222222223)"/><use xlink:href="#H" transform="matrix(1,0,0,1,1924.2560164706513,1434.5338103850152) translate(36.44444444444444 14.222222222222223)"/><use xlink:href="#I" transform="matrix(1,0,0,1,1924.2560164706513,1434.5338103850152) translate(51.75308641975309 14.222222222222223)"/><path d="M1970.48 1578.96h-41.16v-4h41.16zm107 0h-45.37v-4h41.4v-82.04h4z" stroke="#008a0e" stroke-width=".05" fill="#008a0e"/><path d="M2074.25 1490.86l1.24.06 1.24-.06.75-.12v2.23h-4v-2.23z" fill="#008a0e"/><path d="M2074.25 1490.83l1.24.07 1.24-.07.78-.12v2.3h-4.05v-2.3zm-.73 2.12h3.95v-2.18l-.73.1-1.25.08-1.25-.07-.73-.1z" stroke="#008a0e" stroke-width=".05" fill="#008a0e"/><path d="M1927.32 1581.6l-14.27-4.64 14.27-4.64z" fill="#008a0e"/><path d="M1929.32 1584.35l-22.74-7.4 22.74-7.38zm-9.8-7.4l5.8 1.9v-3.77z" stroke="#008a0e" stroke-width=".05" fill="#008a0e"/><use xlink:href="#G" transform="matrix(1,0,0,1,1970.483501006324,1566.2923769922888) translate(0 14.222222222222223)"/><use xlink:href="#H" transform="matrix(1,0,0,1,1970.483501006324,1566.2923769922888) translate(36.44444444444444 14.222222222222223)"/><use xlink:href="#J" transform="matrix(1,0,0,1,1970.483501006324,1566.2923769922888) translate(51.75308641975309 14.222222222222223)"/><path d="M1775.44 1556.18a6 6 0 0 1 6-6h108.1a6 6 0 0 1 6 6v41.55a6 6 0 0 1-6 6h-108.1a6 6 0 0 1-6-6z" stroke="#eae15f" stroke-width="3" fill="#fff"/><use xlink:href="#K" transform="matrix(1,0,0,1,1787.4386545927514,1562.1835439163397) translate(3.05555555555555 19.75)"/><path d="M1775.44 1424.42a6 6 0 0 1 6-6h108.1a6 6 0 0 1 6 6v41.56a6 6 0 0 1-6 6h-108.1a6 6 0 0 1-6-6z" stroke="#eae15f" stroke-width="3" fill="#fff"/><use xlink:href="#L" transform="matrix(1,0,0,1,1787.4386545927514,1430.424977309066) translate(3.05555555555555 19.75)"/><path d="M1772.7 1445.33h-34.17M1772.64 1445.33h2.05" stroke="#5e5e5e" stroke-width="4" fill="none"/><path d="M1722.26 1445.33l14.27-4.63v9.27z" stroke="#5e5e5e" stroke-width="4" fill="#5e5e5e"/><path d="M1770.05 1575.76h-31.53M1770 1575.76h2.05" stroke="#5e5e5e" stroke-width="4" fill="none"/><path d="M1722.26 1575.76l14.26-4.64v9.27z" stroke="#5e5e5e" stroke-width="4" fill="#5e5e5e"/><path d="M2005.92 1309.45a6 6 0 0 1 6-6h134.86a6 6 0 0 1 6 6V1351a6 6 0 0 1-6 6h-134.86a6 6 0 0 1-6-6z" stroke="#eae15f" stroke-width="3" fill="#fff"/><g><use xlink:href="#M" transform="matrix(1,0,0,1,2017.9220346473703,1315.4540410550044) translate(2.1944444444444358 19.75)"/></g><path d="M1895.54 1817.18a6 6 0 0 1 6-6h228.12a6 6 0 0 1 6 6v99.35a6 6 0 0 1-6 6h-228.12a6 6 0 0 1-6-6z" stroke="#333" stroke-width="3" fill-opacity="0"/><path d="M1901.73 1817.8a6 6 0 0 1 6-6h104.96a6 6 0 0 1 6 6v108a6 6 0 0 1-6 6h-104.97a6 6 0 0 1-6-6z" fill="none"/><g><use xlink:href="#N" transform="matrix(1,0,0,1,1913.7333437508385,1823.7886294992745) translate(0 16)"/><use xlink:href="#O" transform="matrix(1,0,0,1,1913.7333437508385,1823.7886294992745) translate(0 40)"/><use xlink:href="#P" transform="matrix(1,0,0,1,1913.7333437508385,1823.7886294992745) translate(0 64)"/><use xlink:href="#Q" transform="matrix(1,0,0,1,1913.7333437508385,1823.7886294992745) translate(0 88)"/></g><path d="M2019.85 1817.8a6 6 0 0 1 6-6h103.8a6 6 0 0 1 6 6v60a6 6 0 0 1-6 6h-103.8a6 6 0 0 1-6-6z" fill="none"/><g><use xlink:href="#R" transform="matrix(1,0,0,1,2031.8456499762115,1823.7886294992745) translate(0 14.72222222222222)"/><use xlink:href="#S" transform="matrix(1,0,0,1,2031.8456499762115,1823.7886294992745) translate(0 41.38888888888889)"/></g><defs><path fill="#333" d="M135-143c-3-34-86-38-87 0 15 53 115 12 119 90S17 21 10-45l28-5c4 36 97 45 98 0-10-56-113-15-118-90-4-57 82-63 122-42 12 7 21 19 24 35" id="T"/><path fill="#333" d="M100-194c63 0 86 42 84 106H49c0 40 14 67 53 68 26 1 43-12 49-29l28 8c-11 28-37 45-77 45C44 4 14-33 15-96c1-61 26-98 85-98zm52 81c6-60-76-77-97-28-3 7-6 17-6 28h103" id="U"/><path fill="#333" d="M114-163C36-179 61-72 57 0H25l-1-190h30c1 12-1 29 2 39 6-27 23-49 58-41v29" id="V"/><path fill="#333" d="M108 0H70L1-190h34L89-25l56-165h34" id="W"/><g id="a"><use transform="matrix(0.06172839506172839,0,0,0.06172839506172839,0,0)" xlink:href="#T"/><use transform="matrix(0.06172839506172839,0,0,0.06172839506172839,11.11111111111111,0)" xlink:href="#U"/><use transform="matrix(0.06172839506172839,0,0,0.06172839506172839,23.45679012345679,0)" xlink:href="#V"/><use transform="matrix(0.06172839506172839,0,0,0.06172839506172839,30.80246913580247,0)" xlink:href="#W"/><use transform="matrix(0.06172839506172839,0,0,0.06172839506172839,41.91358024691358,0)" xlink:href="#U"/><use transform="matrix(0.06172839506172839,0,0,0.06172839506172839,54.25925925925926,0)" xlink:href="#V"/></g><path fill="#333" d="M101-234c-31-9-42 10-38 44h38v23H63V0H32v-167H5v-23h27c-7-52 17-82 69-68v24" id="X"/><path fill="#333" d="M59-47c-2 24 18 29 38 22v24C64 9 27 4 27-40v-127H5v-23h24l9-43h21v43h35v23H59v120" id="Y"/><path fill="#333" d="M-5 72V49h209v23H-5" id="Z"/><path fill="#333" d="M177-190C167-65 218 103 67 71c-23-6-38-20-44-43l32-5c15 47 100 32 89-28v-30C133-14 115 1 83 1 29 1 15-40 15-95c0-56 16-97 71-98 29-1 48 16 59 35 1-10 0-23 2-32h30zM94-22c36 0 50-32 50-73 0-42-14-75-50-75-39 0-46 34-46 75s6 73 46 73" id="aa"/><path fill="#333" d="M115-194c55 1 70 41 70 98S169 2 115 4C84 4 66-9 55-30l1 105H24l-1-265h31l2 30c10-21 28-34 59-34zm-8 174c40 0 45-34 45-75s-6-73-45-74c-42 0-51 32-51 76 0 43 10 73 51 73" id="ab"/><path fill="#333" d="M24-231v-30h32v30H24zM24 0v-190h32V0H24" id="ac"/><path fill="#333" d="M85-194c31 0 48 13 60 33l-1-100h32l1 261h-30c-2-10 0-23-3-31C134-8 116 4 85 4 32 4 16-35 15-94c0-66 23-100 70-100zm9 24c-40 0-46 34-46 75 0 40 6 74 45 74 42 0 51-32 51-76 0-42-9-74-50-73" id="ad"/><g id="b"><use transform="matrix(0.05555555555555555,0,0,0.05555555555555555,0,0)" xlink:href="#X"/><use transform="matrix(0.05555555555555555,0,0,0.05555555555555555,5.555555555555555,0)" xlink:href="#Y"/><use transform="matrix(0.05555555555555555,0,0,0.05555555555555555,11.11111111111111,0)" xlink:href="#Z"/><use transform="matrix(0.05555555555555555,0,0,0.05555555555555555,22.22222222222222,0)" xlink:href="#aa"/><use transform="matrix(0.05555555555555555,0,0,0.05555555555555555,33.33333333333333,0)" xlink:href="#U"/><use transform="matrix(0.05555555555555555,0,0,0.05555555555555555,44.44444444444444,0)" xlink:href="#Y"/><use transform="matrix(0.05555555555555555,0,0,0.05555555555555555,50,0)" xlink:href="#ab"/><use transform="matrix(0.05555555555555555,0,0,0.05555555555555555,61.11111111111112,0)" xlink:href="#ac"/><use transform="matrix(0.05555555555555555,0,0,0.05555555555555555,65.5,0)" xlink:href="#ad"/></g><path fill="#333" d="M87 75C49 33 22-17 22-94c0-76 28-126 65-167h31c-38 41-64 92-64 168S80 34 118 75H87" id="ae"/><path fill="#333" d="M33-261c38 41 65 92 65 168S71 34 33 75H2C39 34 66-17 66-93S39-220 2-261h31" id="af"/><g id="c"><use transform="matrix(0.06172839506172839,0,0,0.06172839506172839,0,0)" xlink:href="#aa"/><use transform="matrix(0.06172839506172839,0,0,0.06172839506172839,12.345679012345679,0)" xlink:href="#U"/><use transform="matrix(0.06172839506172839,0,0,0.06172839506172839,24.691358024691358,0)" xlink:href="#Y"/><use transform="matrix(0.06172839506172839,0,0,0.06172839506172839,30.864197530864196,0)" xlink:href="#ab"/><use transform="matrix(0.06172839506172839,0,0,0.06172839506172839,43.20987654320987,0)" xlink:href="#ac"/><use transform="matrix(0.06172839506172839,0,0,0.06172839506172839,48.08641975308642,0)" xlink:href="#ad"/><use transform="matrix(0.06172839506172839,0,0,0.06172839506172839,60.432098765432094,0)" xlink:href="#ae"/><use transform="matrix(0.06172839506172839,0,0,0.06172839506172839,67.77777777777777,0)" xlink:href="#af"/></g><path fill="#333" d="M210-169c-67 3-38 105-44 169h-31v-121c0-29-5-50-35-48C34-165 62-65 56 0H25l-1-190h30c1 10-1 24 2 32 10-44 99-50 107 0 11-21 27-35 58-36 85-2 47 119 55 194h-31v-121c0-29-5-49-35-48" id="ag"/><path fill="#333" d="M141-36C126-15 110 5 73 4 37 3 15-17 15-53c-1-64 63-63 125-63 3-35-9-54-41-54-24 1-41 7-42 31l-33-3c5-37 33-52 76-52 45 0 72 20 72 64v82c-1 20 7 32 28 27v20c-31 9-61-2-59-35zM48-53c0 20 12 33 32 33 41-3 63-29 60-74-43 2-92-5-92 41" id="ah"/><g id="d"><use transform="matrix(0.05555555555555555,0,0,0.05555555555555555,0,0)" xlink:href="#X"/><use transform="matrix(0.05555555555555555,0,0,0.05555555555555555,5.555555555555555,0)" xlink:href="#Y"/><use transform="matrix(0.05555555555555555,0,0,0.05555555555555555,11.11111111111111,0)" xlink:href="#Z"/><use transform="matrix(0.05555555555555555,0,0,0.05555555555555555,22.22222222222222,0)" xlink:href="#ag"/><use transform="matrix(0.05555555555555555,0,0,0.05555555555555555,38.83333333333333,0)" xlink:href="#U"/><use transform="matrix(0.05555555555555555,0,0,0.05555555555555555,49.94444444444444,0)" xlink:href="#T"/><use transform="matrix(0.05555555555555555,0,0,0.05555555555555555,59.94444444444444,0)" xlink:href="#T"/><use transform="matrix(0.05555555555555555,0,0,0.05555555555555555,69.94444444444444,0)" xlink:href="#ah"/><use transform="matrix(0.05555555555555555,0,0,0.05555555555555555,81.05555555555556,0)" xlink:href="#aa"/><use transform="matrix(0.05555555555555555,0,0,0.05555555555555555,92.16666666666667,0)" xlink:href="#U"/></g><path fill="#333" d="M175 0L67-191c6 58 2 128 3 191H24v-248h59L193-55c-6-58-2-129-3-193h46V0h-61" id="ai"/><path fill="#333" d="M140-251c80 0 125 45 125 126S219 4 139 4C58 4 15-44 15-125s44-126 125-126zm-1 214c52 0 73-35 73-88 0-50-21-86-72-86-52 0-73 35-73 86s22 88 72 88" id="aj"/><g id="e"><use transform="matrix(0.04938271604938272,0,0,0.04938271604938272,0,0)" xlink:href="#ai"/><use transform="matrix(0.04938271604938272,0,0,0.04938271604938272,12.790123456790125,0)" xlink:href="#aj"/></g><path fill="#333" d="M185-189c-5-48-123-54-124 2 14 75 158 14 163 119 3 78-121 87-175 55-17-10-28-26-33-46l33-7c5 56 141 63 141-1 0-78-155-14-162-118-5-82 145-84 179-34 5 7 8 16 11 25" id="ak"/><path fill="#333" d="M33 0v-248h34V0H33" id="al"/><path fill="#333" d="M143 4C61 4 22-44 18-125c-5-107 100-154 193-111 17 8 29 25 37 43l-32 9c-13-25-37-40-76-40-61 0-88 39-88 99 0 61 29 100 91 101 35 0 62-11 79-27v-45h-74v-28h105v86C228-13 192 4 143 4" id="am"/><path fill="#333" d="M232-93c-1 65-40 97-104 97C67 4 28-28 28-90v-158h33c8 89-33 224 67 224 102 0 64-133 71-224h33v155" id="an"/><path fill="#333" d="M233-177c-1 41-23 64-60 70L243 0h-38l-65-103H63V0H30v-248c88 3 205-21 203 71zM63-129c60-2 137 13 137-47 0-61-80-42-137-45v92" id="ao"/><path fill="#333" d="M27 0v-27h64v-190l-56 39v-29l58-41h29v221h61V0H27" id="ap"/><g id="f"><use transform="matrix(0.05555555555555555,0,0,0.05555555555555555,0,0)" xlink:href="#ak"/><use transform="matrix(0.05555555555555555,0,0,0.05555555555555555,13.333333333333332,0)" xlink:href="#al"/><use transform="matrix(0.05555555555555555,0,0,0.05555555555555555,18.888888888888886,0)" xlink:href="#am"/><use transform="matrix(0.05555555555555555,0,0,0.05555555555555555,34.44444444444444,0)" xlink:href="#an"/><use transform="matrix(0.05555555555555555,0,0,0.05555555555555555,48.83333333333333,0)" xlink:href="#ak"/><use transform="matrix(0.05555555555555555,0,0,0.05555555555555555,62.166666666666664,0)" xlink:href="#ao"/><use transform="matrix(0.05555555555555555,0,0,0.05555555555555555,76.55555555555554,0)" xlink:href="#ap"/></g><path fill="#333" d="M117-194c89-4 53 116 60 194h-32v-121c0-31-8-49-39-48C34-167 62-67 57 0H25l-1-190h30c1 10-1 24 2 32 11-22 29-35 61-36" id="aq"/><g id="g"><use transform="matrix(0.05555555555555555,0,0,0.05555555555555555,0,0)" xlink:href="#X"/><use transform="matrix(0.05555555555555555,0,0,0.05555555555555555,5.555555555555555,0)" xlink:href="#Y"/><use transform="matrix(0.05555555555555555,0,0,0.05555555555555555,11.11111111111111,0)" xlink:href="#Z"/><use transform="matrix(0.05555555555555555,0,0,0.05555555555555555,22.22222222222222,0)" xlink:href="#ab"/><use transform="matrix(0.05555555555555555,0,0,0.05555555555555555,33.33333333333333,0)" xlink:href="#V"/><use transform="matrix(0.05555555555555555,0,0,0.05555555555555555,39.94444444444444,0)" xlink:href="#ac"/><use transform="matrix(0.05555555555555555,0,0,0.05555555555555555,44.33333333333333,0)" xlink:href="#aq"/><use transform="matrix(0.05555555555555555,0,0,0.05555555555555555,55.44444444444444,0)" xlink:href="#Y"/><use transform="matrix(0.05555555555555555,0,0,0.05555555555555555,61,0)" xlink:href="#X"/></g><path fill="#333" d="M101-251c82-7 93 87 43 132L82-64C71-53 59-42 53-27h129V0H18c2-99 128-94 128-182 0-28-16-43-45-43s-46 15-49 41l-32-3c6-41 34-60 81-64" id="ar"/><g id="h"><use transform="matrix(0.05555555555555555,0,0,0.05555555555555555,0,0)" xlink:href="#ak"/><use transform="matrix(0.05555555555555555,0,0,0.05555555555555555,13.333333333333332,0)" xlink:href="#al"/><use transform="matrix(0.05555555555555555,0,0,0.05555555555555555,18.888888888888886,0)" xlink:href="#am"/><use transform="matrix(0.05555555555555555,0,0,0.05555555555555555,34.44444444444444,0)" xlink:href="#an"/><use transform="matrix(0.05555555555555555,0,0,0.05555555555555555,48.83333333333333,0)" xlink:href="#ak"/><use transform="matrix(0.05555555555555555,0,0,0.05555555555555555,62.166666666666664,0)" xlink:href="#ao"/><use transform="matrix(0.05555555555555555,0,0,0.05555555555555555,76.55555555555554,0)" xlink:href="#ar"/></g><path fill="#333" d="M106-169C34-169 62-67 57 0H25v-261h32l-1 103c12-21 28-36 61-36 89 0 53 116 60 194h-32v-121c2-32-8-49-39-48" id="as"/><path fill="#333" d="M24 0v-261h32V0H24" id="at"/><g id="i"><use transform="matrix(0.05555555555555555,0,0,0.05555555555555555,0,0)" xlink:href="#as"/><use transform="matrix(0.05555555555555555,0,0,0.05555555555555555,11.11111111111111,0)" xlink:href="#ah"/><use transform="matrix(0.05555555555555555,0,0,0.05555555555555555,22.22222222222222,0)" xlink:href="#aq"/><use transform="matrix(0.05555555555555555,0,0,0.05555555555555555,33.33333333333333,0)" xlink:href="#ad"/><use transform="matrix(0.05555555555555555,0,0,0.05555555555555555,44.44444444444444,0)" xlink:href="#at"/><use transform="matrix(0.05555555555555555,0,0,0.05555555555555555,48.83333333333333,0)" xlink:href="#U"/><use transform="matrix(0.05555555555555555,0,0,0.05555555555555555,59.94444444444444,0)" xlink:href="#V"/></g><g id="j"><use transform="matrix(0.05555555555555555,0,0,0.05555555555555555,0,0)" xlink:href="#X"/><use transform="matrix(0.05555555555555555,0,0,0.05555555555555555,5.555555555555555,0)" xlink:href="#Y"/><use transform="matrix(0.05555555555555555,0,0,0.05555555555555555,11.11111111111111,0)" xlink:href="#Z"/><use transform="matrix(0.05555555555555555,0,0,0.05555555555555555,22.22222222222222,0)" xlink:href="#ab"/><use transform="matrix(0.05555555555555555,0,0,0.05555555555555555,33.33333333333333,0)" xlink:href="#V"/><use transform="matrix(0.05555555555555555,0,0,0.05555555555555555,39.94444444444444,0)" xlink:href="#ac"/><use transform="matrix(0.05555555555555555,0,0,0.05555555555555555,44.33333333333333,0)" xlink:href="#aq"/><use transform="matrix(0.05555555555555555,0,0,0.05555555555555555,55.44444444444444,0)" xlink:href="#Y"/><use transform="matrix(0.05555555555555555,0,0,0.05555555555555555,61,0)" xlink:href="#X"/><use transform="matrix(0.05555555555555555,0,0,0.05555555555555555,66.55555555555556,0)" xlink:href="#ae"/><use transform="matrix(0.05555555555555555,0,0,0.05555555555555555,73.16666666666667,0)" xlink:href="#ab"/><use transform="matrix(0.05555555555555555,0,0,0.05555555555555555,84.27777777777779,0)" xlink:href="#ac"/><use transform="matrix(0.05555555555555555,0,0,0.05555555555555555,88.66666666666667,0)" xlink:href="#ad"/><use transform="matrix(0.05555555555555555,0,0,0.05555555555555555,99.77777777777779,0)" xlink:href="#af"/></g><g id="k"><use transform="matrix(0.05555555555555555,0,0,0.05555555555555555,0,0)" xlink:href="#ac"/><use transform="matrix(0.05555555555555555,0,0,0.05555555555555555,4.388888888888888,0)" xlink:href="#aq"/><use transform="matrix(0.05555555555555555,0,0,0.05555555555555555,15.5,0)" xlink:href="#ac"/><use transform="matrix(0.05555555555555555,0,0,0.05555555555555555,19.88888888888889,0)" xlink:href="#Y"/><use transform="matrix(0.05555555555555555,0,0,0.05555555555555555,25.444444444444443,0)" xlink:href="#ae"/><use transform="matrix(0.05555555555555555,0,0,0.05555555555555555,32.05555555555556,0)" xlink:href="#af"/></g><path fill="#333" d="M101-251c68 0 85 55 85 127S166 4 100 4C33 4 14-52 14-124c0-73 17-127 87-127zm-1 229c47 0 54-49 54-102s-4-102-53-102c-51 0-55 48-55 102 0 53 5 102 54 102" id="au"/><g id="l"><use transform="matrix(0.05555555555555555,0,0,0.05555555555555555,0,0)" xlink:href="#T"/><use transform="matrix(0.05555555555555555,0,0,0.05555555555555555,10,0)" xlink:href="#at"/><use transform="matrix(0.05555555555555555,0,0,0.05555555555555555,14.388888888888888,0)" xlink:href="#U"/><use transform="matrix(0.05555555555555555,0,0,0.05555555555555555,25.5,0)" xlink:href="#U"/><use transform="matrix(0.05555555555555555,0,0,0.05555555555555555,36.611111111111114,0)" xlink:href="#ab"/><use transform="matrix(0.05555555555555555,0,0,0.05555555555555555,47.72222222222223,0)" xlink:href="#ae"/><use transform="matrix(0.05555555555555555,0,0,0.05555555555555555,54.33333333333334,0)" xlink:href="#ar"/><use transform="matrix(0.05555555555555555,0,0,0.05555555555555555,65.44444444444446,0)" xlink:href="#au"/><use transform="matrix(0.05555555555555555,0,0,0.05555555555555555,76.55555555555557,0)" xlink:href="#au"/><use transform="matrix(0.05555555555555555,0,0,0.05555555555555555,87.66666666666669,0)" xlink:href="#af"/></g><path fill="#333" d="M96-169c-40 0-48 33-48 73s9 75 48 75c24 0 41-14 43-38l32 2c-6 37-31 61-74 61-59 0-76-41-82-99-10-93 101-131 147-64 4 7 5 14 7 22l-32 3c-4-21-16-35-41-35" id="av"/><path fill="#333" d="M100-194c62-1 85 37 85 99 1 63-27 99-86 99S16-35 15-95c0-66 28-99 85-99zM99-20c44 1 53-31 53-75 0-43-8-75-51-75s-53 32-53 75 10 74 51 75" id="aw"/><g id="m"><use transform="matrix(0.05555555555555555,0,0,0.05555555555555555,0,0)" xlink:href="#T"/><use transform="matrix(0.05555555555555555,0,0,0.05555555555555555,10,0)" xlink:href="#ac"/><use transform="matrix(0.05555555555555555,0,0,0.05555555555555555,14.388888888888888,0)" xlink:href="#aa"/><use transform="matrix(0.05555555555555555,0,0,0.05555555555555555,25.5,0)" xlink:href="#ah"/><use transform="matrix(0.05555555555555555,0,0,0.05555555555555555,36.611111111111114,0)" xlink:href="#av"/><use transform="matrix(0.05555555555555555,0,0,0.05555555555555555,46.611111111111114,0)" xlink:href="#Y"/><use transform="matrix(0.05555555555555555,0,0,0.05555555555555555,52.16666666666667,0)" xlink:href="#ac"/><use transform="matrix(0.05555555555555555,0,0,0.05555555555555555,56.55555555555556,0)" xlink:href="#aw"/><use transform="matrix(0.05555555555555555,0,0,0.05555555555555555,67.66666666666667,0)" xlink:href="#aq"/><use transform="matrix(0.05555555555555555,0,0,0.05555555555555555,78.77777777777779,0)" xlink:href="#ae"/><use transform="matrix(0.05555555555555555,0,0,0.05555555555555555,85.3888888888889,0)" xlink:href="#af"/></g><path fill="#333" d="M238-95c0 69-44 99-111 99C63 4 22-25 22-93v-155h51v151c-1 38 19 59 55 60 90 1 49-130 58-211h52v153" id="ax"/><path fill="#333" d="M24 0v-248h52V0H24" id="ay"/><path fill="#333" d="M67-125c0 53 21 87 73 88 37 1 54-22 65-47l45 17C233-25 199 4 140 4 58 4 20-42 15-125 8-235 124-281 211-232c18 10 29 29 36 50l-46 12c-8-25-30-41-62-41-52 0-71 34-72 86" id="az"/><path fill="#333" d="M24-248c120-7 223 5 221 122C244-46 201 0 124 0H24v-248zM76-40c74 7 117-18 117-86 0-67-45-88-117-82v168" id="aA"/><path fill="#333" d="M24 0v-248h195v40H76v63h132v40H76v65h150V0H24" id="aB"/><g id="n"><use transform="matrix(0.04938271604938272,0,0,0.04938271604938272,0,0)" xlink:href="#ax"/><use transform="matrix(0.04938271604938272,0,0,0.04938271604938272,12.790123456790125,0)" xlink:href="#ai"/><use transform="matrix(0.04938271604938272,0,0,0.04938271604938272,25.58024691358025,0)" xlink:href="#ay"/><use transform="matrix(0.04938271604938272,0,0,0.04938271604938272,30.518518518518523,0)" xlink:href="#az"/><use transform="matrix(0.04938271604938272,0,0,0.04938271604938272,43.308641975308646,0)" xlink:href="#aj"/><use transform="matrix(0.04938271604938272,0,0,0.04938271604938272,57.135802469135804,0)" xlink:href="#aA"/><use transform="matrix(0.04938271604938272,0,0,0.04938271604938272,69.92592592592594,0)" xlink:href="#aB"/></g><path fill="#333" d="M199 0l-22-63H83L61 0H9l90-248h61L250 0h-51zm-33-102l-36-108c-10 38-24 72-36 108h72" id="aC"/><path fill="#333" d="M169-182c-1-43-94-46-97-3 18 66 151 10 154 114 3 95-165 93-204 36-6-8-10-19-12-30l50-8c3 46 112 56 116 5-17-69-150-10-154-114-4-87 153-88 188-35 5 8 8 18 10 28" id="aD"/><g id="o"><use transform="matrix(0.04938271604938272,0,0,0.04938271604938272,0,0)" xlink:href="#aC"/><use transform="matrix(0.04938271604938272,0,0,0.04938271604938272,12.790123456790125,0)" xlink:href="#aD"/><use transform="matrix(0.04938271604938272,0,0,0.04938271604938272,24.641975308641978,0)" xlink:href="#az"/><use transform="matrix(0.04938271604938272,0,0,0.04938271604938272,37.4320987654321,0)" xlink:href="#ay"/><use transform="matrix(0.04938271604938272,0,0,0.04938271604938272,42.370370370370374,0)" xlink:href="#ay"/></g><g id="p"><use transform="matrix(0.04320987654320988,0,0,0.04320987654320988,0,0)" xlink:href="#ak"/><use transform="matrix(0.04320987654320988,0,0,0.04320987654320988,10.370370370370372,0)" xlink:href="#al"/><use transform="matrix(0.04320987654320988,0,0,0.04320987654320988,14.691358024691363,0)" xlink:href="#am"/><use transform="matrix(0.04320987654320988,0,0,0.04320987654320988,26.790123456790127,0)" xlink:href="#an"/><use transform="matrix(0.04320987654320988,0,0,0.04320987654320988,37.98148148148149,0)" xlink:href="#ak"/><use transform="matrix(0.04320987654320988,0,0,0.04320987654320988,48.35185185185187,0)" xlink:href="#ao"/><use transform="matrix(0.04320987654320988,0,0,0.04320987654320988,59.54320987654322,0)" xlink:href="#ap"/></g><g id="q"><use transform="matrix(0.03703703703703704,0,0,0.03703703703703704,0,0)" xlink:href="#av"/><use transform="matrix(0.03703703703703704,0,0,0.03703703703703704,6.666666666666668,0)" xlink:href="#as"/></g><path fill="#333" d="M32 76v-337h29V76H32" id="aE"/><path fill="#333" d="M18-150v-26h174v26H18zm0 90v-26h174v26H18" id="aF"/><g id="r"><use transform="matrix(0.03703703703703704,0,0,0.03703703703703704,0,0)" xlink:href="#aE"/><use transform="matrix(0.03703703703703704,0,0,0.03703703703703704,3.444444444444445,0)" xlink:href="#aF"/></g><use transform="matrix(0.03703703703703704,0,0,0.03703703703703704,0,0)" xlink:href="#ap" id="s"/><path fill="#333" d="M115-194c53 0 69 39 70 98 0 66-23 100-70 100C84 3 66-7 56-30L54 0H23l1-261h32v101c10-23 28-34 59-34zm-8 174c40 0 45-34 45-75 0-40-5-75-45-74-42 0-51 32-51 76 0 43 10 73 51 73" id="aG"/><g id="t"><use transform="matrix(0.05555555555555555,0,0,0.05555555555555555,0,0)" xlink:href="#aG"/><use transform="matrix(0.05555555555555555,0,0,0.05555555555555555,11.11111111111111,0)" xlink:href="#ac"/><use transform="matrix(0.05555555555555555,0,0,0.05555555555555555,15.5,0)" xlink:href="#Y"/><use transform="matrix(0.05555555555555555,0,0,0.05555555555555555,21.055555555555557,0)" xlink:href="#U"/></g><use transform="matrix(0.05555555555555555,0,0,0.05555555555555555,0,0)" xlink:href="#aF" id="u"/><path fill="#333" d="M134-131c28 9 52 24 51 62-1 50-34 73-85 73S17-19 16-69c0-36 21-54 49-61-75-25-45-126 34-121 46 3 78 18 79 63 0 33-17 51-44 57zm-34-11c31 1 46-15 46-44 0-28-17-43-47-42-29 0-46 13-45 42 1 28 16 44 46 44zm1 122c35 0 51-18 51-52 0-30-18-46-53-46-33 0-51 17-51 47 0 34 19 51 53 51" id="aH"/><use transform="matrix(0.05555555555555555,0,0,0.05555555555555555,0,0)" xlink:href="#aH" id="v"/><g id="w"><use transform="matrix(0.06172839506172839,0,0,0.06172839506172839,0,0)" xlink:href="#av"/><use transform="matrix(0.06172839506172839,0,0,0.06172839506172839,11.11111111111111,0)" xlink:href="#at"/><use transform="matrix(0.06172839506172839,0,0,0.06172839506172839,15.987654320987653,0)" xlink:href="#ac"/><use transform="matrix(0.06172839506172839,0,0,0.06172839506172839,20.864197530864196,0)" xlink:href="#U"/><use transform="matrix(0.06172839506172839,0,0,0.06172839506172839,33.20987654320987,0)" xlink:href="#aq"/><use transform="matrix(0.06172839506172839,0,0,0.06172839506172839,45.55555555555555,0)" xlink:href="#Y"/></g><g id="x"><use transform="matrix(0.05555555555555555,0,0,0.05555555555555555,0,0)" xlink:href="#T"/><use transform="matrix(0.05555555555555555,0,0,0.05555555555555555,10,0)" xlink:href="#U"/><use transform="matrix(0.05555555555555555,0,0,0.05555555555555555,21.11111111111111,0)" xlink:href="#aq"/><use transform="matrix(0.05555555555555555,0,0,0.05555555555555555,32.22222222222222,0)" xlink:href="#ad"/><use transform="matrix(0.05555555555555555,0,0,0.05555555555555555,43.33333333333333,0)" xlink:href="#Z"/><use transform="matrix(0.05555555555555555,0,0,0.05555555555555555,54.44444444444444,0)" xlink:href="#T"/><use transform="matrix(0.05555555555555555,0,0,0.05555555555555555,64.44444444444444,0)" xlink:href="#ac"/><use transform="matrix(0.05555555555555555,0,0,0.05555555555555555,68.83333333333333,0)" xlink:href="#aa"/><use transform="matrix(0.05555555555555555,0,0,0.05555555555555555,79.94444444444444,0)" xlink:href="#aq"/><use transform="matrix(0.05555555555555555,0,0,0.05555555555555555,91.05555555555556,0)" xlink:href="#ah"/><use transform="matrix(0.05555555555555555,0,0,0.05555555555555555,102.16666666666667,0)" xlink:href="#at"/></g><g id="y"><use transform="matrix(0.05555555555555555,0,0,0.05555555555555555,0,0)" xlink:href="#ah"/><use transform="matrix(0.05555555555555555,0,0,0.05555555555555555,11.11111111111111,0)" xlink:href="#V"/><use transform="matrix(0.05555555555555555,0,0,0.05555555555555555,17.72222222222222,0)" xlink:href="#aa"/><use transform="matrix(0.05555555555555555,0,0,0.05555555555555555,28.833333333333332,0)" xlink:href="#av"/></g><path fill="#333" d="M15-22v-40l146-57-146-57v-40l181 69v56" id="aI"/><path fill="#333" d="M15-148v-39h180v39H15zm0 97v-39h180v39H15" id="aJ"/><g id="z"><use transform="matrix(0.04938271604938272,0,0,0.04938271604938272,0,0)" xlink:href="#aI"/><use transform="matrix(0.04938271604938272,0,0,0.04938271604938272,10.370370370370372,0)" xlink:href="#aJ"/></g><path fill="#333" d="M165-50V0h-47v-50H5v-38l105-160h55v161h33v37h-33zm-47-37l2-116L46-87h72" id="aK"/><use transform="matrix(0.04938271604938272,0,0,0.04938271604938272,0,0)" xlink:href="#aK" id="A"/><path fill="#333" d="M15-91v-56l181-69v40L49-119l147 57v40" id="aL"/><g id="B"><use transform="matrix(0.04938271604938272,0,0,0.04938271604938272,0,0)" xlink:href="#aL"/><use transform="matrix(0.04938271604938272,0,0,0.04938271604938272,10.370370370370372,0)" xlink:href="#aJ"/></g><path fill="#333" d="M182-182c0 78-84 86-111 141h115V0H12c-6-101 99-100 120-180 1-22-12-31-33-32-23 0-32 14-35 34l-49-3c5-45 32-70 84-70 51 0 83 22 83 69" id="aM"/><use transform="matrix(0.04938271604938272,0,0,0.04938271604938272,0,0)" xlink:href="#aM" id="C"/><g id="D"><use transform="matrix(0.05555555555555555,0,0,0.05555555555555555,0,0)" xlink:href="#av"/><use transform="matrix(0.05555555555555555,0,0,0.05555555555555555,10,0)" xlink:href="#as"/><use transform="matrix(0.05555555555555555,0,0,0.05555555555555555,21.11111111111111,0)" xlink:href="#ah"/><use transform="matrix(0.05555555555555555,0,0,0.05555555555555555,32.22222222222222,0)" xlink:href="#V"/></g><path fill="#333" d="M143 0L79-87 56-68V0H24v-261h32v163l83-92h37l-77 82L181 0h-38" id="aN"/><g id="E"><use transform="matrix(0.05555555555555555,0,0,0.05555555555555555,0,0)" xlink:href="#aN"/><use transform="matrix(0.05555555555555555,0,0,0.05555555555555555,10,0)" xlink:href="#ac"/><use transform="matrix(0.05555555555555555,0,0,0.05555555555555555,14.388888888888888,0)" xlink:href="#at"/><use transform="matrix(0.05555555555555555,0,0,0.05555555555555555,18.77777777777778,0)" xlink:href="#at"/><use transform="matrix(0.05555555555555555,0,0,0.05555555555555555,23.166666666666668,0)" xlink:href="#ae"/><use transform="matrix(0.05555555555555555,0,0,0.05555555555555555,29.777777777777775,0)" xlink:href="#ak"/><use transform="matrix(0.05555555555555555,0,0,0.05555555555555555,43.111111111111114,0)" xlink:href="#al"/><use transform="matrix(0.05555555555555555,0,0,0.05555555555555555,48.66666666666667,0)" xlink:href="#am"/><use transform="matrix(0.05555555555555555,0,0,0.05555555555555555,64.22222222222223,0)" xlink:href="#an"/><use transform="matrix(0.05555555555555555,0,0,0.05555555555555555,78.61111111111111,0)" xlink:href="#ak"/><use transform="matrix(0.05555555555555555,0,0,0.05555555555555555,91.94444444444444,0)" xlink:href="#ao"/><use transform="matrix(0.05555555555555555,0,0,0.05555555555555555,106.33333333333333,0)" xlink:href="#ap"/><use transform="matrix(0.05555555555555555,0,0,0.05555555555555555,117.44444444444444,0)" xlink:href="#af"/></g><g id="F"><use transform="matrix(0.05555555555555555,0,0,0.05555555555555555,0,0)" xlink:href="#aN"/><use transform="matrix(0.05555555555555555,0,0,0.05555555555555555,10,0)" xlink:href="#ac"/><use transform="matrix(0.05555555555555555,0,0,0.05555555555555555,14.388888888888888,0)" xlink:href="#at"/><use transform="matrix(0.05555555555555555,0,0,0.05555555555555555,18.77777777777778,0)" xlink:href="#at"/><use transform="matrix(0.05555555555555555,0,0,0.05555555555555555,23.166666666666668,0)" xlink:href="#ae"/><use transform="matrix(0.05555555555555555,0,0,0.05555555555555555,29.777777777777775,0)" xlink:href="#ak"/><use transform="matrix(0.05555555555555555,0,0,0.05555555555555555,43.111111111111114,0)" xlink:href="#al"/><use transform="matrix(0.05555555555555555,0,0,0.05555555555555555,48.66666666666667,0)" xlink:href="#am"/><use transform="matrix(0.05555555555555555,0,0,0.05555555555555555,64.22222222222223,0)" xlink:href="#an"/><use transform="matrix(0.05555555555555555,0,0,0.05555555555555555,78.61111111111111,0)" xlink:href="#ak"/><use transform="matrix(0.05555555555555555,0,0,0.05555555555555555,91.94444444444444,0)" xlink:href="#ao"/><use transform="matrix(0.05555555555555555,0,0,0.05555555555555555,106.33333333333333,0)" xlink:href="#ar"/><use transform="matrix(0.05555555555555555,0,0,0.05555555555555555,117.44444444444444,0)" xlink:href="#af"/></g><path fill="#333" d="M135-194c52 0 70 43 70 98 0 56-19 99-73 100-30 1-46-15-58-35L72 0H24l1-261h50v104c11-23 29-37 60-37zM114-30c31 0 40-27 40-66 0-37-7-63-39-63s-41 28-41 65c0 36 8 64 40 64" id="aO"/><path fill="#333" d="M25-224v-37h50v37H25zM25 0v-190h50V0H25" id="aP"/><path fill="#333" d="M115-3C79 11 28 4 28-45v-112H4v-33h27l15-45h31v45h36v33H77v99c-1 23 16 31 38 25v30" id="aQ"/><path fill="#333" d="M185-48c-13 30-37 53-82 52C43 2 14-33 14-96s30-98 90-98c62 0 83 45 84 108H66c0 31 8 55 39 56 18 0 30-7 34-22zm-45-69c5-46-57-63-70-21-2 6-4 13-4 21h74" id="aR"/><g id="G"><use transform="matrix(0.04938271604938272,0,0,0.04938271604938272,0,0)" xlink:href="#aO"/><use transform="matrix(0.04938271604938272,0,0,0.04938271604938272,10.814814814814815,0)" xlink:href="#aP"/><use transform="matrix(0.04938271604938272,0,0,0.04938271604938272,15.753086419753087,0)" xlink:href="#aQ"/><use transform="matrix(0.04938271604938272,0,0,0.04938271604938272,21.62962962962963,0)" xlink:href="#aR"/></g><use transform="matrix(0.04938271604938272,0,0,0.04938271604938272,0,0)" xlink:href="#aJ" id="H"/><path fill="#333" d="M23 0v-37h61v-169l-59 37v-38l62-41h46v211h57V0H23" id="aS"/><use transform="matrix(0.04938271604938272,0,0,0.04938271604938272,0,0)" xlink:href="#aS" id="I"/><path fill="#333" d="M101-251c68 0 84 54 84 127C185-50 166 4 99 4S15-52 14-124c-1-75 17-127 87-127zm-1 216c37-5 36-46 36-89s4-89-36-89c-39 0-36 45-36 89 0 43-3 85 36 89" id="aT"/><use transform="matrix(0.04938271604938272,0,0,0.04938271604938272,0,0)" xlink:href="#aT" id="J"/><g id="K"><use transform="matrix(0.05555555555555555,0,0,0.05555555555555555,0,0)" xlink:href="#X"/><use transform="matrix(0.05555555555555555,0,0,0.05555555555555555,5.555555555555555,0)" xlink:href="#Y"/><use transform="matrix(0.05555555555555555,0,0,0.05555555555555555,11.11111111111111,0)" xlink:href="#Z"/><use transform="matrix(0.05555555555555555,0,0,0.05555555555555555,22.22222222222222,0)" xlink:href="#ab"/><use transform="matrix(0.05555555555555555,0,0,0.05555555555555555,33.33333333333333,0)" xlink:href="#V"/><use transform="matrix(0.05555555555555555,0,0,0.05555555555555555,39.94444444444444,0)" xlink:href="#ac"/><use transform="matrix(0.05555555555555555,0,0,0.05555555555555555,44.33333333333333,0)" xlink:href="#aq"/><use transform="matrix(0.05555555555555555,0,0,0.05555555555555555,55.44444444444444,0)" xlink:href="#Y"/><use transform="matrix(0.05555555555555555,0,0,0.05555555555555555,61,0)" xlink:href="#X"/><use transform="matrix(0.05555555555555555,0,0,0.05555555555555555,66.55555555555556,0)" xlink:href="#ae"/><use transform="matrix(0.05555555555555555,0,0,0.05555555555555555,73.16666666666667,0)" xlink:href="#au"/><use transform="matrix(0.05555555555555555,0,0,0.05555555555555555,84.27777777777779,0)" xlink:href="#af"/></g><g id="L"><use transform="matrix(0.05555555555555555,0,0,0.05555555555555555,0,0)" xlink:href="#X"/><use transform="matrix(0.05555555555555555,0,0,0.05555555555555555,5.555555555555555,0)" xlink:href="#Y"/><use transform="matrix(0.05555555555555555,0,0,0.05555555555555555,11.11111111111111,0)" xlink:href="#Z"/><use transform="matrix(0.05555555555555555,0,0,0.05555555555555555,22.22222222222222,0)" xlink:href="#ab"/><use transform="matrix(0.05555555555555555,0,0,0.05555555555555555,33.33333333333333,0)" xlink:href="#V"/><use transform="matrix(0.05555555555555555,0,0,0.05555555555555555,39.94444444444444,0)" xlink:href="#ac"/><use transform="matrix(0.05555555555555555,0,0,0.05555555555555555,44.33333333333333,0)" xlink:href="#aq"/><use transform="matrix(0.05555555555555555,0,0,0.05555555555555555,55.44444444444444,0)" xlink:href="#Y"/><use transform="matrix(0.05555555555555555,0,0,0.05555555555555555,61,0)" xlink:href="#X"/><use transform="matrix(0.05555555555555555,0,0,0.05555555555555555,66.55555555555556,0)" xlink:href="#ae"/><use transform="matrix(0.05555555555555555,0,0,0.05555555555555555,73.16666666666667,0)" xlink:href="#ap"/><use transform="matrix(0.05555555555555555,0,0,0.05555555555555555,84.27777777777779,0)" xlink:href="#af"/></g><g id="M"><use transform="matrix(0.05555555555555555,0,0,0.05555555555555555,0,0)" xlink:href="#X"/><use transform="matrix(0.05555555555555555,0,0,0.05555555555555555,5.555555555555555,0)" xlink:href="#Y"/><use transform="matrix(0.05555555555555555,0,0,0.05555555555555555,11.11111111111111,0)" xlink:href="#Z"/><use transform="matrix(0.05555555555555555,0,0,0.05555555555555555,22.22222222222222,0)" xlink:href="#ab"/><use transform="matrix(0.05555555555555555,0,0,0.05555555555555555,33.33333333333333,0)" xlink:href="#V"/><use transform="matrix(0.05555555555555555,0,0,0.05555555555555555,39.94444444444444,0)" xlink:href="#ac"/><use transform="matrix(0.05555555555555555,0,0,0.05555555555555555,44.33333333333333,0)" xlink:href="#aq"/><use transform="matrix(0.05555555555555555,0,0,0.05555555555555555,55.44444444444444,0)" xlink:href="#Y"/><use transform="matrix(0.05555555555555555,0,0,0.05555555555555555,61,0)" xlink:href="#X"/><use transform="matrix(0.05555555555555555,0,0,0.05555555555555555,66.55555555555556,0)" xlink:href="#ae"/><use transform="matrix(0.05555555555555555,0,0,0.05555555555555555,73.16666666666667,0)" xlink:href="#av"/><use transform="matrix(0.05555555555555555,0,0,0.05555555555555555,83.16666666666667,0)" xlink:href="#as"/><use transform="matrix(0.05555555555555555,0,0,0.05555555555555555,94.27777777777779,0)" xlink:href="#ah"/><use transform="matrix(0.05555555555555555,0,0,0.05555555555555555,105.3888888888889,0)" xlink:href="#V"/><use transform="matrix(0.05555555555555555,0,0,0.05555555555555555,112.00000000000001,0)" xlink:href="#af"/></g><path fill="#333" d="M25 0v-261h50V0H25" id="aU"/><path fill="#333" d="M121-226c-27-7-43 5-38 36h38v33H83V0H34v-157H6v-33h28c-9-59 32-81 87-68v32" id="aV"/><path fill="#333" d="M24 0v-54h51V0H24" id="aW"/><path fill="#333" d="M114-157C55-157 80-60 75 0H25v-261h50l-1 109c12-26 28-41 61-42 86-1 58 113 63 194h-50c-7-57 23-157-34-157" id="aX"/><g id="N"><use transform="matrix(0.05555555555555555,0,0,0.05555555555555555,0,0)" xlink:href="#aU"/><use transform="matrix(0.05555555555555555,0,0,0.05555555555555555,5.555555555555555,0)" xlink:href="#aP"/><use transform="matrix(0.05555555555555555,0,0,0.05555555555555555,11.11111111111111,0)" xlink:href="#aO"/><use transform="matrix(0.05555555555555555,0,0,0.05555555555555555,23.27777777777778,0)" xlink:href="#aV"/><use transform="matrix(0.05555555555555555,0,0,0.05555555555555555,29.888888888888886,0)" xlink:href="#aQ"/><use transform="matrix(0.05555555555555555,0,0,0.05555555555555555,36.5,0)" xlink:href="#aW"/><use transform="matrix(0.05555555555555555,0,0,0.05555555555555555,42.05555555555556,0)" xlink:href="#aX"/></g><path fill="#333" d="M-4 44V30h207v14H-4" id="aY"/><path fill="#333" d="M135-194c53 0 70 44 70 98 0 56-19 98-73 100-31 1-45-17-59-34 3 33 2 69 2 105H25l-1-265h48c2 10 0 23 3 31 11-24 29-35 60-35zM114-30c33 0 39-31 40-66 0-38-9-64-40-64-56 0-55 130 0 130" id="aZ"/><path fill="#333" d="M135-150c-39-12-60 13-60 57V0H25l-1-190h47c2 13-1 29 3 40 6-28 27-53 61-41v41" id="ba"/><path fill="#333" d="M135-194c87-1 58 113 63 194h-50c-7-57 23-157-34-157-59 0-34 97-39 157H25l-1-190h47c2 12-1 28 3 38 12-26 28-41 61-42" id="bb"/><g id="O"><use transform="matrix(0.05555555555555555,0,0,0.05555555555555555,0,0)" xlink:href="#aV"/><use transform="matrix(0.05555555555555555,0,0,0.05555555555555555,6.611111111111111,0)" xlink:href="#aQ"/><use transform="matrix(0.05555555555555555,0,0,0.05555555555555555,13.222222222222221,0)" xlink:href="#aY"/><use transform="matrix(0.05555555555555555,0,0,0.05555555555555555,24.333333333333332,0)" xlink:href="#aZ"/><use transform="matrix(0.05555555555555555,0,0,0.05555555555555555,36.5,0)" xlink:href="#ba"/><use transform="matrix(0.05555555555555555,0,0,0.05555555555555555,44.27777777777778,0)" xlink:href="#aP"/><use transform="matrix(0.05555555555555555,0,0,0.05555555555555555,49.833333333333336,0)" xlink:href="#bb"/><use transform="matrix(0.05555555555555555,0,0,0.05555555555555555,62,0)" xlink:href="#aQ"/><use transform="matrix(0.05555555555555555,0,0,0.05555555555555555,68.61111111111111,0)" xlink:href="#aV"/><use transform="matrix(0.05555555555555555,0,0,0.05555555555555555,75.22222222222223,0)" xlink:href="#aW"/><use transform="matrix(0.05555555555555555,0,0,0.05555555555555555,80.77777777777779,0)" xlink:href="#aX"/></g><path fill="#333" d="M110-194c64 0 96 36 96 99 0 64-35 99-97 99-61 0-95-36-95-99 0-62 34-99 96-99zm-1 164c35 0 45-28 45-65 0-40-10-65-43-65-34 0-45 26-45 65 0 36 10 65 43 65" id="bc"/><g id="P"><use transform="matrix(0.05555555555555555,0,0,0.05555555555555555,0,0)" xlink:href="#aR"/><use transform="matrix(0.05555555555555555,0,0,0.05555555555555555,11.11111111111111,0)" xlink:href="#ba"/><use transform="matrix(0.05555555555555555,0,0,0.05555555555555555,18.88888888888889,0)" xlink:href="#ba"/><use transform="matrix(0.05555555555555555,0,0,0.05555555555555555,26.666666666666668,0)" xlink:href="#bc"/><use transform="matrix(0.05555555555555555,0,0,0.05555555555555555,38.833333333333336,0)" xlink:href="#ba"/><use transform="matrix(0.05555555555555555,0,0,0.05555555555555555,45.5,0)" xlink:href="#aW"/><use transform="matrix(0.05555555555555555,0,0,0.05555555555555555,51.05555555555556,0)" xlink:href="#aX"/></g><path fill="#333" d="M190-63c-7 42-38 67-86 67-59 0-84-38-90-98-12-110 154-137 174-36l-49 2c-2-19-15-32-35-32-30 0-35 28-38 64-6 74 65 87 74 30" id="bd"/><path fill="#333" d="M137-138c1-29-70-34-71-4 15 46 118 7 119 86 1 83-164 76-172 9l43-7c4 19 20 25 44 25 33 8 57-30 24-41C81-84 22-81 20-136c-2-80 154-74 161-7" id="be"/><g id="Q"><use transform="matrix(0.05555555555555555,0,0,0.05555555555555555,0,0)" xlink:href="#bd"/><use transform="matrix(0.05555555555555555,0,0,0.05555555555555555,11.11111111111111,0)" xlink:href="#bc"/><use transform="matrix(0.05555555555555555,0,0,0.05555555555555555,23.27777777777778,0)" xlink:href="#aU"/><use transform="matrix(0.05555555555555555,0,0,0.05555555555555555,28.83333333333334,0)" xlink:href="#bc"/><use transform="matrix(0.05555555555555555,0,0,0.05555555555555555,41,0)" xlink:href="#ba"/><use transform="matrix(0.05555555555555555,0,0,0.05555555555555555,48.77777777777778,0)" xlink:href="#be"/><use transform="matrix(0.05555555555555555,0,0,0.05555555555555555,59.888888888888886,0)" xlink:href="#aW"/><use transform="matrix(0.05555555555555555,0,0,0.05555555555555555,65.44444444444444,0)" xlink:href="#aX"/></g><g id="R"><use transform="matrix(0.04938271604938272,0,0,0.04938271604938272,0,0)" xlink:href="#X"/><use transform="matrix(0.04938271604938272,0,0,0.04938271604938272,4.938271604938272,0)" xlink:href="#Y"/><use transform="matrix(0.04938271604938272,0,0,0.04938271604938272,9.876543209876544,0)" xlink:href="#Z"/><use transform="matrix(0.04938271604938272,0,0,0.04938271604938272,19.75308641975309,0)" xlink:href="#ag"/><use transform="matrix(0.04938271604938272,0,0,0.04938271604938272,34.51851851851852,0)" xlink:href="#U"/><use transform="matrix(0.04938271604938272,0,0,0.04938271604938272,44.39506172839506,0)" xlink:href="#T"/><use transform="matrix(0.04938271604938272,0,0,0.04938271604938272,53.28395061728394,0)" xlink:href="#T"/><use transform="matrix(0.04938271604938272,0,0,0.04938271604938272,62.172839506172835,0)" xlink:href="#ah"/><use transform="matrix(0.04938271604938272,0,0,0.04938271604938272,72.04938271604938,0)" xlink:href="#aa"/><use transform="matrix(0.04938271604938272,0,0,0.04938271604938272,81.92592592592592,0)" xlink:href="#U"/></g><g id="S"><use transform="matrix(0.04938271604938272,0,0,0.04938271604938272,0,0)" xlink:href="#X"/><use transform="matrix(0.04938271604938272,0,0,0.04938271604938272,4.938271604938272,0)" xlink:href="#Y"/><use transform="matrix(0.04938271604938272,0,0,0.04938271604938272,9.876543209876544,0)" xlink:href="#Z"/><use transform="matrix(0.04938271604938272,0,0,0.04938271604938272,19.75308641975309,0)" xlink:href="#ab"/><use transform="matrix(0.04938271604938272,0,0,0.04938271604938272,29.629629629629633,0)" xlink:href="#V"/><use transform="matrix(0.04938271604938272,0,0,0.04938271604938272,35.50617283950618,0)" xlink:href="#ac"/><use transform="matrix(0.04938271604938272,0,0,0.04938271604938272,39.40740740740741,0)" xlink:href="#aq"/><use transform="matrix(0.04938271604938272,0,0,0.04938271604938272,49.283950617283956,0)" xlink:href="#Y"/><use transform="matrix(0.04938271604938272,0,0,0.04938271604938272,54.22222222222223,0)" xlink:href="#X"/></g></defs></g></svg>